<svg width="32" height="34" viewBox="0 0 32 34" fill="none" xmlns="http://www.w3.org/2000/svg">
<path d="M4.34628 34H26.9037C28.047 34 29.0254 33.6126 29.8388 32.8379C30.6523 32.0632 31.081 31.0781 31.125 29.8828V29.75C31.125 28.6875 30.8392 27.6914 30.2676 26.7617L19.8463 12.75V2.85547H21.2314C21.5832 2.85547 21.9129 2.70052 22.2207 2.39062C22.5285 2.08073 22.6824 1.7487 22.6824 1.39453C22.6824 1.04036 22.5285 0.719401 22.2207 0.431641C21.9129 0.14388 21.5832 0 21.2314 0H10.0186C9.66684 0 9.33706 0.14388 9.02926 0.431641C8.72145 0.719401 8.56755 1.04036 8.56755 1.39453C8.56755 1.7487 8.72145 2.08073 9.02926 2.39062C9.33706 2.70052 9.66684 2.85547 10.0186 2.85547H11.4037V12.6172L1.11436 26.6289C0.54273 27.5586 0.256915 28.5104 0.256915 29.4844L0.125 29.75C0.168972 30.9453 0.608688 31.9525 1.44415 32.7715C2.27961 33.5905 3.24699 34 4.34628 34ZM11.4037 17.3984L12.1293 16.6016C13.1846 15.0964 13.8881 13.3919 14.2399 11.4883V2.85547H17.0101V11.3555C17.4059 13.4362 18.1094 15.1185 19.1207 16.4023L19.8463 17.2656L22.6824 21.1172H8.56755L11.4037 17.3984ZM3.35691 28.3555L7.18245 23.1094L4.57713 24.1055H24.7931L27.8931 28.3555C27.981 28.444 28.1129 28.8646 28.2888 29.6172C28.2888 30.0156 28.1459 30.3698 27.8601 30.6797C27.5743 30.9896 27.2555 31.1445 26.9037 31.1445H4.34628C3.9945 31.1445 3.67571 30.9896 3.38989 30.6797C3.10408 30.3698 2.96117 30.0156 2.96117 29.6172C2.96117 29.0417 3.09309 28.6211 3.35691 28.3555Z" fill="#E92129"/>
</svg>
