<svg width="788" height="184" viewBox="0 0 788 184" fill="none" xmlns="http://www.w3.org/2000/svg">
<g filter="url(#filter0_b_1_1906)">
<path d="M0 0.404297H787.256L746.066 183.764H0V0.404297Z" fill="#181818" fill-opacity="0.85"/>
</g>
<path d="M284.321 128.213C285.897 125.808 286.949 123.098 287.411 120.26C287.532 119.573 287.617 118.88 287.664 118.183C287.664 117.829 287.664 117.5 287.664 117.145V116.259V113.473L287.512 102.303L287.107 79.9646L286.853 68.8206V63.2232C286.853 62.2608 286.853 61.5263 286.727 60.0573C286.626 58.7112 286.388 57.3789 286.018 56.0809C285.23 53.3195 283.758 50.8017 281.737 48.7614C279.559 46.5562 276.741 45.0939 273.683 44.5824C270.562 44.0886 267.365 44.669 264.616 46.2286C263.368 46.9164 262.218 47.7683 261.197 48.7614L260.462 49.5212L260.007 50.0784L259.095 51.1421C244.481 68.466 234.173 81.003 224.954 92.4762L206.718 80.9017L200.994 77.4572C212.037 64.3123 222.522 51.3701 242.885 28.2209C220.091 50.1037 208.06 61.6529 195.523 73.962C186.633 68.39 177.794 62.7927 168.778 57.246L159.305 51.3701L154.569 48.4828L152.188 47.0138L151.581 46.6592L150.491 45.95C149.722 45.5646 148.927 45.2345 148.111 44.9623C144.705 43.848 141.018 43.9464 137.676 45.2409C134.723 46.3923 132.139 48.3276 130.204 50.8382C128.438 53.1342 127.193 55.7876 126.557 58.6137C126.235 59.9765 126.048 61.3678 126 62.7673V65.8826L126.355 88.2212C126.355 95.6675 126.608 103.114 126.785 110.56V116.132V118.918C126.801 120.103 126.877 121.286 127.013 122.464C127.401 125.183 128.396 127.78 129.926 130.062C131.633 132.544 134.015 134.486 136.789 135.659C139.72 136.858 142.973 137.019 146.009 136.115C147.45 135.672 148.816 135.015 150.061 134.165C150.642 133.768 151.193 133.328 151.707 132.848C151.986 132.62 152.214 132.367 152.467 132.139L152.796 131.784L153.024 131.531L160.622 123.325C173.995 108.787 183.189 98.3521 191.015 89.2597L198.461 94.0718L215.304 104.659C204.033 118.867 192.687 133.456 174.603 155.946C195.067 134.595 208.06 121.349 220.825 108.027L236.224 117.702L255.194 129.53L259.931 132.468L261.121 133.202L261.703 133.582L262.007 133.76L262.539 134.064C264.045 134.943 265.689 135.56 267.402 135.887C269.161 136.204 270.962 136.204 272.721 135.887C274.397 135.605 276.02 135.067 277.533 134.292C280.269 132.866 282.603 130.776 284.321 128.213ZM153.252 116.107L145.274 124.034L145.046 124.287H144.869L144.59 124.541L144.058 124.92C143.738 125.09 143.398 125.218 143.045 125.3C142.467 125.416 141.867 125.326 141.348 125.047C140.641 124.581 140.058 123.95 139.647 123.209C139.237 122.468 139.013 121.639 138.993 120.792C138.993 120.235 138.993 119.83 138.993 118.741V115.955V110.383C139.162 102.936 139.314 95.4902 139.449 88.0439L140.209 65.8319V63.2992C140.231 62.8277 140.307 62.3603 140.437 61.9062C140.639 61.0928 141.03 60.3382 141.576 59.7027C141.935 59.251 142.407 58.9016 142.944 58.6896C143.141 58.6201 143.355 58.6201 143.552 58.6896L160.85 69.8083C168.702 74.8738 176.57 79.9392 184.455 85.0047L153.252 116.107ZM274.443 63.2232V68.7446L274.215 79.8886L273.81 102.227L273.658 113.397V116.866C273.67 116.984 273.67 117.103 273.658 117.221C273.658 117.449 273.658 117.677 273.658 117.905C273.501 118.751 273.164 119.555 272.67 120.26C272.308 120.786 271.821 121.212 271.252 121.501C271.024 121.589 270.771 121.589 270.543 121.501L270.239 121.324L268.111 119.956L263.122 116.866L244.329 104.811L231.665 96.6805C241.518 86.4737 252.282 74.6965 267.149 58.6137L268.111 57.5752L268.542 57.094L268.795 56.8661C269.117 56.5911 269.475 56.3611 269.859 56.1822C270.402 55.9166 271.021 55.8537 271.606 56.005C272.332 56.2482 272.978 56.6823 273.477 57.2618C273.976 57.8412 274.31 58.5444 274.443 59.2975C274.555 59.7965 274.614 60.3058 274.62 60.8171L274.443 63.2232Z" fill="#E4252C"/>
<path d="M363.291 115.22C363.315 115.659 363.244 116.097 363.083 116.506C362.921 116.914 362.673 117.283 362.355 117.586C362.037 117.889 361.658 118.12 361.242 118.263C360.826 118.405 360.385 118.456 359.948 118.411C359.178 118.426 358.421 118.209 357.776 117.789C357.13 117.37 356.625 116.766 356.326 116.056L339.787 79.8631C337.432 73.3793 333.912 69.3523 326.009 69.3523C317.196 69.3523 312.991 74.4177 312.991 81.6867V127.048H322.894V82.1932C322.86 81.74 322.928 81.285 323.092 80.8612C323.256 80.4373 323.512 80.0552 323.841 79.7424C324.171 79.4297 324.566 79.1942 324.998 79.053C325.43 78.9118 325.888 78.8684 326.339 78.926C327.128 78.8888 327.907 79.1184 328.551 79.5778C329.194 80.0373 329.664 80.6998 329.885 81.4587L346.423 117.55C348.779 124.034 352.375 128.061 360.277 128.061C369.015 128.061 373.295 122.995 373.295 115.625V70.3654H363.291V115.22Z" fill="white"/>
<path d="M387.783 70.3652H377.88V127.048H387.783V70.3652Z" fill="white"/>
<path d="M505.479 70.3652H493.144L474.909 91.2602L457.534 70.3652H441.806L423.595 91.2602L406.196 70.3652H394.039L417.061 97.4907L391.734 127.048H403.992L423.317 104.532L442.16 127.048H455.356L474.655 104.532L493.473 127.048H505.479L481.139 98.2506L505.479 70.3652ZM448.695 120.513L429.801 98.2506L449.708 75.456L468.45 97.5667L448.695 120.513Z" fill="white"/>
<path d="M540.709 93.717H527.437C520.801 93.717 519.029 90.4244 519.029 86.9799C519.029 83.0542 521.308 80.2682 526.424 80.2682H555.474V70.3652H526.753C514.09 70.3652 509.024 77.2543 509.024 86.6507C509.024 94.5528 512.545 103.037 527.665 103.037H540.937C547.902 103.037 549.826 106.381 549.826 110.078C549.826 114.207 547.294 117.145 542.026 117.145H510.139V127.048H541.696C554.639 127.048 559.755 120.007 559.755 110.433C559.755 102.278 556.133 93.717 540.709 93.717Z" fill="white"/>
<path d="M597.847 70.3652H590.097C573.659 70.3652 564.491 79.7616 564.491 98.8331C564.491 117.905 573.558 127.048 590.097 127.048H597.847C614.386 127.048 623.453 117.803 623.453 98.8331C623.453 79.863 614.386 70.3652 597.847 70.3652ZM597.847 117.145H590.097C579.105 117.145 574.394 111.775 574.394 98.8331C574.394 85.8908 579.181 80.2682 590.097 80.2682H597.847C608.763 80.2682 613.449 85.8149 613.449 98.7571C613.449 111.699 608.763 117.145 597.847 117.145Z" fill="white"/>
<path d="M652.199 117.145C643.284 117.145 640.599 112.864 640.599 107.394V70.3652H630.696V107.47C630.696 118.816 636.572 127.048 651.617 127.048H674.209V117.145H652.199Z" fill="white"/>
<path d="M387.783 56.1062H377.88V66.0092H387.783V56.1062Z" fill="#E4252C"/>
<defs>
<filter id="filter0_b_1_1906" x="-78.75" y="-78.3457" width="944.756" height="340.859" filterUnits="userSpaceOnUse" color-interpolation-filters="sRGB">
<feFlood flood-opacity="0" result="BackgroundImageFix"/>
<feGaussianBlur in="BackgroundImageFix" stdDeviation="39.375"/>
<feComposite in2="SourceAlpha" operator="in" result="effect1_backgroundBlur_1_1906"/>
<feBlend mode="normal" in="SourceGraphic" in2="effect1_backgroundBlur_1_1906" result="shape"/>
</filter>
</defs>
</svg>
