<svg width="20" height="20" viewBox="0 0 20 20" fill="none" xmlns="http://www.w3.org/2000/svg">
<path d="M9.5918 6.95674C7.8394 6.95674 6.40931 8.38686 6.40931 10.1393C6.40931 11.8917 7.8394 13.3218 9.5918 13.3218C11.3442 13.3218 12.7743 11.8917 12.7743 10.1393C12.7743 8.38686 11.3442 6.95674 9.5918 6.95674ZM19.1369 10.1393C19.1369 8.82138 19.1488 7.51541 19.0748 6.1999C19.0008 4.67189 18.6522 3.31579 17.5349 2.19843C16.4152 1.07869 15.0615 0.732501 13.5335 0.658488C12.2156 0.584476 10.9097 0.596413 9.59419 0.596413C8.27631 0.596413 6.97036 0.584476 5.65487 0.658488C4.12689 0.732501 2.77081 1.08108 1.65348 2.19843C0.533759 3.31817 0.187577 4.67189 0.113565 6.1999C0.039554 7.5178 0.0514914 8.82377 0.0514914 10.1393C0.0514914 11.4548 0.039554 12.7632 0.113565 14.0787C0.187577 15.6067 0.536147 16.9628 1.65348 18.0801C2.7732 19.1999 4.12689 19.5461 5.65487 19.6201C6.97275 19.6941 8.27869 19.6822 9.59419 19.6822C10.9121 19.6822 12.218 19.6941 13.5335 19.6201C15.0615 19.5461 16.4176 19.1975 17.5349 18.0801C18.6546 16.9604 19.0008 15.6067 19.0748 14.0787C19.1512 12.7632 19.1369 11.4572 19.1369 10.1393ZM9.5918 15.0361C6.88203 15.0361 4.69511 12.8491 4.69511 10.1393C4.69511 7.42946 6.88203 5.24251 9.5918 5.24251C12.3016 5.24251 14.4885 7.42946 14.4885 10.1393C14.4885 12.8491 12.3016 15.0361 9.5918 15.0361ZM14.689 6.18557C14.0564 6.18557 13.5454 5.67464 13.5454 5.04195C13.5454 4.40927 14.0564 3.89834 14.689 3.89834C15.3217 3.89834 15.8326 4.40927 15.8326 5.04195C15.8328 5.19219 15.8034 5.34099 15.746 5.47982C15.6886 5.61866 15.6043 5.7448 15.4981 5.85103C15.3919 5.95727 15.2657 6.0415 15.1269 6.0989C14.9881 6.15631 14.8393 6.18576 14.689 6.18557Z" fill="white"/>
</svg>
