<svg width="21" height="22" viewBox="0 0 21 22" fill="none" xmlns="http://www.w3.org/2000/svg">
<path d="M10.3059 0.933594C4.66968 0.933594 0.0996094 5.50366 0.0996094 11.1399C0.0996094 16.7762 4.66968 21.3463 10.3059 21.3463C15.9422 21.3463 20.5123 16.7762 20.5123 11.1399C20.5123 5.50366 15.9422 0.933594 10.3059 0.933594ZM15.2109 8.62707C15.2177 8.73415 15.2177 8.84578 15.2177 8.95513C15.2177 12.2995 12.6707 16.152 8.01635 16.152C6.58109 16.152 5.25062 15.7351 4.12974 15.0174C4.33478 15.0402 4.53071 15.0493 4.7403 15.0493C5.92497 15.0493 7.01395 14.6484 7.88194 13.9695C6.77018 13.9467 5.83612 13.2176 5.51717 12.2152C5.90674 12.2722 6.25758 12.2722 6.65855 12.1697C6.08609 12.0534 5.57156 11.7425 5.20236 11.2898C4.83316 10.8371 4.63206 10.2706 4.63323 9.68644V9.65454C4.96812 9.84363 5.36225 9.95982 5.7746 9.97577C5.42796 9.74475 5.14368 9.43176 4.94696 9.06456C4.75025 8.69735 4.64718 8.28729 4.6469 7.87071C4.6469 7.39912 4.76992 6.96854 4.9909 6.59492C5.6263 7.37711 6.41918 8.01684 7.318 8.47253C8.21683 8.92823 9.20149 9.18968 10.208 9.23991C9.8503 7.51987 11.1352 6.12789 12.6798 6.12789C13.4089 6.12789 14.065 6.43317 14.5274 6.92526C15.0993 6.81818 15.646 6.60403 16.1336 6.31698C15.9445 6.90248 15.5481 7.39685 15.0218 7.70896C15.5321 7.65428 16.0242 7.51303 16.4799 7.31483C16.1359 7.82059 15.7053 8.2694 15.2109 8.62707Z" fill="white"/>
</svg>
